<svg width="400" height="240" viewBox="0 0 400 240" fill="none" xmlns="http://www.w3.org/2000/svg">
<rect width="400" height="240" fill="#F0FFF3"/>
<path d="M267.528 114.4C269.102 114.4 270.475 114.72 271.648 115.36C272.848 116 273.768 116.84 274.408 117.88V114.72H281.248V137C281.248 139.053 280.835 140.907 280.008 142.56C279.208 144.24 277.968 145.573 276.288 146.56C274.635 147.547 272.568 148.04 270.088 148.04C266.782 148.04 264.102 147.253 262.048 145.68C259.995 144.133 258.822 142.027 258.528 139.36H265.288C265.502 140.213 266.008 140.88 266.808 141.36C267.608 141.867 268.595 142.12 269.768 142.12C271.182 142.12 272.302 141.707 273.128 140.88C273.982 140.08 274.408 138.787 274.408 137V133.84C273.742 134.88 272.822 135.733 271.648 136.4C270.475 137.04 269.102 137.36 267.528 137.36C265.688 137.36 264.022 136.893 262.528 135.96C261.035 135 259.848 133.653 258.968 131.92C258.115 130.16 257.688 128.133 257.688 125.84C257.688 123.547 258.115 121.533 258.968 119.8C259.848 118.067 261.035 116.733 262.528 115.8C264.022 114.867 265.688 114.4 267.528 114.4ZM274.408 125.88C274.408 124.173 273.928 122.827 272.968 121.84C272.035 120.853 270.888 120.36 269.528 120.36C268.168 120.36 267.008 120.853 266.048 121.84C265.115 122.8 264.648 124.133 264.648 125.84C264.648 127.547 265.115 128.907 266.048 129.92C267.008 130.907 268.168 131.4 269.528 131.4C270.888 131.4 272.035 130.907 272.968 129.92C273.928 128.933 274.408 127.587 274.408 125.88Z" fill="black"/>
<path d="M247.295 114.48C249.909 114.48 251.989 115.333 253.535 117.04C255.109 118.72 255.895 121.04 255.895 124V137.04H249.095V124.92C249.095 123.427 248.709 122.267 247.935 121.44C247.162 120.613 246.122 120.2 244.815 120.2C243.509 120.2 242.469 120.613 241.695 121.44C240.922 122.267 240.535 123.427 240.535 124.92V137.04H233.695V114.72H240.535V117.68C241.229 116.693 242.162 115.92 243.335 115.36C244.509 114.773 245.829 114.48 247.295 114.48Z" fill="black"/>
<path d="M226.938 112.4C225.738 112.4 224.752 112.053 223.978 111.36C223.232 110.64 222.858 109.76 222.858 108.72C222.858 107.653 223.232 106.773 223.978 106.08C224.752 105.36 225.738 105 226.938 105C228.112 105 229.072 105.36 229.818 106.08C230.592 106.773 230.978 107.653 230.978 108.72C230.978 109.76 230.592 110.64 229.818 111.36C229.072 112.053 228.112 112.4 226.938 112.4ZM230.338 114.72V137.04H223.498V114.72H230.338Z" fill="black"/>
<path d="M214.012 137.04L207.212 127.68V137.04H200.372V107.44H207.212V123.8L213.972 114.72H222.412L213.132 125.92L222.492 137.04H214.012Z" fill="black"/>
<path d="M188.747 137.36C186.801 137.36 185.067 137.027 183.547 136.36C182.027 135.693 180.827 134.787 179.947 133.64C179.067 132.467 178.574 131.16 178.467 129.72H185.227C185.307 130.493 185.667 131.12 186.307 131.6C186.947 132.08 187.734 132.32 188.667 132.32C189.521 132.32 190.174 132.16 190.627 131.84C191.107 131.493 191.347 131.053 191.347 130.52C191.347 129.88 191.014 129.413 190.347 129.12C189.681 128.8 188.601 128.453 187.107 128.08C185.507 127.707 184.174 127.32 183.107 126.92C182.041 126.493 181.121 125.84 180.347 124.96C179.574 124.053 179.187 122.84 179.187 121.32C179.187 120.04 179.534 118.88 180.227 117.84C180.947 116.773 181.987 115.933 183.347 115.32C184.734 114.707 186.374 114.4 188.267 114.4C191.067 114.4 193.267 115.093 194.867 116.48C196.494 117.867 197.427 119.707 197.667 122H191.347C191.241 121.227 190.894 120.613 190.307 120.16C189.747 119.707 189.001 119.48 188.067 119.48C187.267 119.48 186.654 119.64 186.227 119.96C185.801 120.253 185.587 120.667 185.587 121.2C185.587 121.84 185.921 122.32 186.587 122.64C187.281 122.96 188.347 123.28 189.787 123.6C191.441 124.027 192.787 124.453 193.827 124.88C194.867 125.28 195.774 125.947 196.547 126.88C197.347 127.787 197.761 129.013 197.787 130.56C197.787 131.867 197.414 133.04 196.667 134.08C195.947 135.093 194.894 135.893 193.507 136.48C192.147 137.067 190.561 137.36 188.747 137.36Z" fill="black"/>
<path d="M152.759 125.84C152.759 123.547 153.185 121.533 154.039 119.8C154.919 118.067 156.105 116.733 157.599 115.8C159.092 114.867 160.759 114.4 162.599 114.4C164.172 114.4 165.545 114.72 166.719 115.36C167.919 116 168.839 116.84 169.479 117.88V114.72H176.319V137.04H169.479V133.88C168.812 134.92 167.879 135.76 166.679 136.4C165.505 137.04 164.132 137.36 162.559 137.36C160.745 137.36 159.092 136.893 157.599 135.96C156.105 135 154.919 133.653 154.039 131.92C153.185 130.16 152.759 128.133 152.759 125.84ZM169.479 125.88C169.479 124.173 168.999 122.827 168.039 121.84C167.105 120.853 165.959 120.36 164.599 120.36C163.239 120.36 162.079 120.853 161.119 121.84C160.185 122.8 159.719 124.133 159.719 125.84C159.719 127.547 160.185 128.907 161.119 129.92C162.079 130.907 163.239 131.4 164.599 131.4C165.959 131.4 167.105 130.907 168.039 129.92C168.999 128.933 169.479 127.587 169.479 125.88Z" fill="black"/>
<path d="M150.8 108.96V137.04H143.96V120.2L137.68 137.04H132.16L125.84 120.16V137.04H119V108.96H127.08L134.96 128.4L142.76 108.96H150.8Z" fill="black"/>
<rect x="100" y="123" width="201" height="8" fill="#73FF83" fill-opacity="0.82"/>
<path fill-rule="evenodd" clip-rule="evenodd" d="M317.696 97.1727C319.536 97.9171 319.395 100.557 317.487 101.104L307.855 103.862L303.456 112.831C302.584 114.608 299.949 114.288 299.533 112.353L295.048 91.5231C294.697 89.8883 296.324 88.5277 297.88 89.1568L317.696 97.1727Z" fill="url(#paint0_linear_51_6)"/>
<defs>
<linearGradient id="paint0_linear_51_6" x1="307" y1="89" x2="319" y2="124" gradientUnits="userSpaceOnUse">
<stop stop-color="#89FF97"/>
<stop offset="1" stop-color="#13D42A"/>
</linearGradient>
</defs>
</svg>
