<svg width="400" height="240" viewBox="0 0 400 240" fill="none" xmlns="http://www.w3.org/2000/svg">
<rect width="400" height="240" fill="#F3F9FF"/>
<path d="M328.532 104.975C330.557 94.3418 333.342 91.557 343.975 89.5316C345.241 89.2785 346 88.2658 346 87C346 85.7342 345.241 84.7215 343.975 84.4684C333.342 82.443 330.557 79.6582 328.532 69.0253C328.278 67.7595 327.266 67 326 67C324.734 67 323.722 67.7595 323.468 69.0253C321.443 79.6582 318.658 82.443 308.025 84.4684C307.013 84.7215 306 85.7342 306 87C306 88.2658 306.759 89.2785 308.025 89.5316C318.658 91.557 321.443 94.3418 323.468 104.975C323.722 106.241 324.734 107 326 107C327.266 107 328.278 105.987 328.532 104.975Z" fill="url(#paint0_linear_50_1042)"/>
<path d="M306.312 132.28V138.08H302.832C300.352 138.08 298.418 137.48 297.032 136.28C295.645 135.053 294.952 133.067 294.952 130.32V121.44H292.232V115.76H294.952V110.32H301.792V115.76H306.272V121.44H301.792V130.4C301.792 131.067 301.952 131.547 302.272 131.84C302.592 132.133 303.125 132.28 303.872 132.28H306.312Z" fill="black"/>
<path d="M269.893 126.92C269.893 124.6 270.359 122.573 271.293 120.84C272.253 119.107 273.573 117.773 275.253 116.84C276.959 115.907 278.906 115.44 281.093 115.44C283.893 115.44 286.226 116.173 288.093 117.64C289.986 119.107 291.226 121.173 291.813 123.84H284.533C283.919 122.133 282.733 121.28 280.973 121.28C279.719 121.28 278.719 121.773 277.973 122.76C277.226 123.72 276.853 125.107 276.853 126.92C276.853 128.733 277.226 130.133 277.973 131.12C278.719 132.08 279.719 132.56 280.973 132.56C282.733 132.56 283.919 131.707 284.533 130H291.813C291.226 132.613 289.986 134.667 288.093 136.16C286.199 137.653 283.866 138.4 281.093 138.4C278.906 138.4 276.959 137.933 275.253 137C273.573 136.067 272.253 134.733 271.293 133C270.359 131.267 269.893 129.24 269.893 126.92Z" fill="black"/>
<path d="M269.244 126.56C269.244 127.2 269.204 127.867 269.124 128.56H253.644C253.751 129.947 254.191 131.013 254.964 131.76C255.764 132.48 256.738 132.84 257.884 132.84C259.591 132.84 260.778 132.12 261.444 130.68H268.724C268.351 132.147 267.671 133.467 266.684 134.64C265.724 135.813 264.511 136.733 263.044 137.4C261.578 138.067 259.938 138.4 258.124 138.4C255.938 138.4 253.991 137.933 252.284 137C250.578 136.067 249.244 134.733 248.284 133C247.324 131.267 246.844 129.24 246.844 126.92C246.844 124.6 247.311 122.573 248.244 120.84C249.204 119.107 250.538 117.773 252.244 116.84C253.951 115.907 255.911 115.44 258.124 115.44C260.284 115.44 262.204 115.893 263.884 116.8C265.564 117.707 266.871 119 267.804 120.68C268.764 122.36 269.244 124.32 269.244 126.56ZM262.244 124.76C262.244 123.587 261.844 122.653 261.044 121.96C260.244 121.267 259.244 120.92 258.044 120.92C256.898 120.92 255.924 121.253 255.124 121.92C254.351 122.587 253.871 123.533 253.684 124.76H262.244Z" fill="black"/>
<path d="M245.994 132.28V138.08H242.514C240.034 138.08 238.101 137.48 236.714 136.28C235.328 135.053 234.634 133.067 234.634 130.32V121.44H231.914V115.76H234.634V110.32H241.474V115.76H245.954V121.44H241.474V130.4C241.474 131.067 241.634 131.547 241.954 131.84C242.274 132.133 242.808 132.28 243.554 132.28H245.994Z" fill="black"/>
<path d="M231.546 126.56C231.546 127.2 231.506 127.867 231.426 128.56H215.946C216.053 129.947 216.493 131.013 217.266 131.76C218.066 132.48 219.039 132.84 220.186 132.84C221.893 132.84 223.079 132.12 223.746 130.68H231.026C230.653 132.147 229.973 133.467 228.986 134.64C228.026 135.813 226.813 136.733 225.346 137.4C223.879 138.067 222.239 138.4 220.426 138.4C218.239 138.4 216.293 137.933 214.586 137C212.879 136.067 211.546 134.733 210.586 133C209.626 131.267 209.146 129.24 209.146 126.92C209.146 124.6 209.613 122.573 210.546 120.84C211.506 119.107 212.839 117.773 214.546 116.84C216.253 115.907 218.213 115.44 220.426 115.44C222.586 115.44 224.506 115.893 226.186 116.8C227.866 117.707 229.173 119 230.106 120.68C231.066 122.36 231.546 124.32 231.546 126.56ZM224.546 124.76C224.546 123.587 224.146 122.653 223.346 121.96C222.546 121.267 221.546 120.92 220.346 120.92C219.199 120.92 218.226 121.253 217.426 121.92C216.653 122.587 216.173 123.533 215.986 124.76H224.546Z" fill="black"/>
<path d="M193.563 110C196.523 110 199.11 110.587 201.323 111.76C203.537 112.933 205.243 114.587 206.443 116.72C207.67 118.827 208.283 121.267 208.283 124.04C208.283 126.787 207.67 129.227 206.443 131.36C205.243 133.493 203.523 135.147 201.283 136.32C199.07 137.493 196.497 138.08 193.563 138.08H183.043V110H193.563ZM193.123 132.16C195.71 132.16 197.723 131.453 199.163 130.04C200.603 128.627 201.323 126.627 201.323 124.04C201.323 121.453 200.603 119.44 199.163 118C197.723 116.56 195.71 115.84 193.123 115.84H189.883V132.16H193.123Z" fill="black"/>
<path d="M173.957 132.28V138.08H170.477C167.997 138.08 166.064 137.48 164.677 136.28C163.29 135.053 162.597 133.067 162.597 130.32V121.44H159.877V115.76H162.597V110.32H169.437V115.76H173.917V121.44H169.437V130.4C169.437 131.067 169.597 131.547 169.917 131.84C170.237 132.133 170.77 132.28 171.517 132.28H173.957Z" fill="black"/>
<path d="M152.801 138.08L148.521 131.88L144.921 138.08H137.521L144.881 126.68L137.321 115.76H145.001L149.281 121.92L152.881 115.76H160.281L152.801 127L160.481 138.08H152.801Z" fill="black"/>
<path d="M137.593 126.56C137.593 127.2 137.553 127.867 137.473 128.56H121.993C122.099 129.947 122.539 131.013 123.313 131.76C124.113 132.48 125.086 132.84 126.233 132.84C127.939 132.84 129.126 132.12 129.793 130.68H137.073C136.699 132.147 136.019 133.467 135.033 134.64C134.073 135.813 132.859 136.733 131.393 137.4C129.926 138.067 128.286 138.4 126.473 138.4C124.286 138.4 122.339 137.933 120.633 137C118.926 136.067 117.593 134.733 116.633 133C115.673 131.267 115.193 129.24 115.193 126.92C115.193 124.6 115.659 122.573 116.593 120.84C117.553 119.107 118.886 117.773 120.593 116.84C122.299 115.907 124.259 115.44 126.473 115.44C128.633 115.44 130.553 115.893 132.233 116.8C133.913 117.707 135.219 119 136.153 120.68C137.113 122.36 137.593 124.32 137.593 126.56ZM130.593 124.76C130.593 123.587 130.193 122.653 129.393 121.96C128.593 121.267 127.593 120.92 126.393 120.92C125.246 120.92 124.273 121.253 123.473 121.92C122.699 122.587 122.219 123.533 122.033 124.76H130.593Z" fill="black"/>
<path d="M114.72 110V115.48H107.28V138.08H100.44V115.48H93V110H114.72Z" fill="black"/>
<rect x="77" y="123" width="247" height="8" fill="#1B9DFD" fill-opacity="0.49"/>
<defs>
<linearGradient id="paint0_linear_50_1042" x1="313.581" y1="68.3558" x2="335.621" y2="106.017" gradientUnits="userSpaceOnUse">
<stop stop-color="#0B81FF"/>
<stop offset="1" stop-color="#34C8F9"/>
</linearGradient>
</defs>
</svg>
