<svg width="400" height="240" viewBox="0 0 400 240" fill="none" xmlns="http://www.w3.org/2000/svg">
<rect width="400" height="240" fill="#FCF6F4"/>
<path d="M262.956 163.042C243.522 157.835 225.822 140.028 232.989 113.28C240.156 86.5326 264.389 79.9608 283.822 85.1681C294.619 88.061 303.628 94.2824 309.275 102.739C315.382 111.99 316.943 123.159 313.789 134.93C310.635 146.702 303.717 155.524 293.803 160.483C284.684 164.982 273.683 165.917 262.956 163.042Z" fill="url(#paint0_radial_50_1041)"/>
<path d="M312.949 109.897C315.057 116.882 315.082 124.534 312.956 132.467C309.802 144.239 302.884 153.061 292.97 158.02C283.851 162.519 272.85 163.454 262.123 160.579C249.543 157.209 237.722 148.554 232.844 135.608C237.043 149.918 249.596 159.463 262.956 163.042C273.683 165.917 284.684 164.982 293.803 160.483C303.717 155.524 310.635 146.702 313.789 134.93C316.167 126.056 315.863 117.524 312.949 109.897Z" fill="#EB8F00"/>
<path d="M270.137 138.472C267.643 137.803 265.282 136.723 263.159 135.258C260.535 133.487 256.981 134.185 255.212 136.802C254.211 138.281 253.96 140.139 254.529 141.83C256.293 147.23 260.357 151.006 266.348 152.611C272.338 154.217 277.747 152.978 281.974 149.183C284.347 147.095 284.571 143.474 282.482 141.1C281.303 139.761 279.567 139.05 277.786 139.177C275.215 139.384 272.63 139.14 270.137 138.472Z" fill="#422B0D"/>
<path d="M247.997 136.947C254.729 138.751 261.566 135.068 263.266 128.72C264.967 122.373 260.889 115.765 254.156 113.961C247.424 112.157 240.588 115.84 238.887 122.188C237.186 128.535 241.265 135.143 247.997 136.947Z" fill="url(#paint1_radial_50_1041)"/>
<path d="M290.069 148.22C296.801 150.024 303.637 146.341 305.338 139.993C307.039 133.646 302.96 127.038 296.228 125.234C289.496 123.43 282.66 127.113 280.959 133.461C279.258 139.808 283.337 146.416 290.069 148.22Z" fill="url(#paint2_radial_50_1041)"/>
<path d="M309.354 112.444C304.067 109.303 298.614 112.851 298.614 112.851C298.614 112.851 299.547 107.42 295.103 104.445C289.778 100.86 282.727 102.405 280.131 110.616C277.177 119.97 286.371 135.752 286.371 135.752C286.371 135.752 303.038 135.739 310.504 128.243C316.58 122.144 313.355 114.815 309.354 112.444Z" fill="#F44336"/>
<path d="M309.356 112.438C308.703 112.061 308.001 111.784 307.273 111.604C308.953 113.524 310.063 115.875 310.472 118.388C310.821 121.013 310.261 124.133 307.418 127.276C301.249 134.111 287.474 135.676 286.477 135.774C287.698 135.758 303.348 135.472 310.528 128.265C316.582 122.138 313.357 114.809 309.356 112.438Z" fill="#C62828"/>
<path d="M298.379 113.704C298.531 112.969 298.614 112.215 298.637 111.459C298.782 109.303 297.99 107.187 296.461 105.65C295.415 104.594 294.166 103.766 292.792 103.211C292.792 103.211 294.712 104.405 295.428 107.695C295.78 109.417 295.789 111.196 295.447 112.919C295.273 113.537 295.223 114.173 295.291 114.81C295.386 115.456 295.908 115.961 296.561 116.032C297.581 116.044 298.109 114.909 298.379 113.704Z" fill="#C62828"/>
<path d="M285.727 106.754C287.462 105.487 290.013 104.52 291.68 106.49C292.563 107.54 292.001 109.696 290.411 110.308C287.727 111.351 287.334 112.403 286.84 113.241C286.245 114.239 285.704 115.475 284.576 115.755C283.449 116.035 282.731 115.26 282.631 113.569C282.403 110.91 283.573 108.327 285.727 106.754Z" fill="#FF847A"/>
<path d="M263.859 95.9223C257.719 96.2406 255.147 102.218 255.147 102.218C255.147 102.218 252.924 97.143 247.546 97.1505C241.141 97.1214 236.128 102.318 238.492 110.574C241.254 120.049 257.651 128.063 257.651 128.063C257.651 128.063 271.514 118.817 273.577 108.441C275.252 99.9903 268.501 95.6803 263.859 95.9223Z" fill="#F44336"/>
<path d="M263.859 95.9223C263.11 95.9604 262.363 96.1035 261.648 96.3452C264.112 97.0128 266.336 98.3552 268.074 100.225C269.833 102.189 271.085 105.122 270.467 109.324C269.122 118.438 258.517 127.369 257.71 128.012C258.722 127.327 271.585 118.411 273.572 108.432C275.252 99.9903 268.501 95.6803 263.859 95.9223Z" fill="#C62828"/>
<path d="M255.432 103.078C255.159 102.37 254.817 101.696 254.404 101.063C253.341 99.1806 251.527 97.8434 249.414 97.3968C247.964 97.0978 246.465 97.0918 245.009 97.3962C245.009 97.3962 247.269 97.3222 249.685 99.6719C250.939 100.926 251.92 102.421 252.585 104.062C252.78 104.674 253.092 105.236 253.505 105.727C253.943 106.21 254.657 106.334 255.237 106.034C256.059 105.448 255.873 104.219 255.432 103.078Z" fill="#C62828"/>
<path d="M241.063 104.321C241.248 103.743 241.507 103.193 241.831 102.683C242.43 101.589 243.518 100.843 244.751 100.673C245.906 100.624 247.319 101.257 247.605 102.475C247.86 103.559 247.184 104.602 246.626 105.573C246.054 106.704 245.586 107.892 245.23 109.111C244.968 110.115 243.949 110.716 242.942 110.461C241.995 110.207 241.476 109.187 241.158 108.258C240.707 106.988 240.672 105.612 241.063 104.321Z" fill="#FF847A"/>
<path d="M229.109 152.061C215.339 165.831 191.848 172.049 172.9 153.094C153.952 134.139 160.163 110.655 173.933 96.8857C181.561 89.2368 191.157 84.7005 200.976 84.0654C211.689 83.4233 221.802 87.52 230.142 95.8598C238.481 104.2 242.529 114.263 241.887 124.976C241.245 134.788 236.695 144.461 229.109 152.061Z" fill="url(#paint3_radial_50_1041)"/>
<path d="M208.779 84.4459C215.646 86.0581 222.039 89.743 227.699 95.361C236.074 103.736 240.087 113.771 239.444 124.477C238.788 134.317 234.238 143.969 226.638 151.569C217.726 160.481 204.738 166.225 191.541 164.027C205.569 167.432 219.638 161.532 229.109 152.061C236.695 144.461 241.245 134.795 241.887 124.976C242.529 114.263 238.481 104.2 230.142 95.8598C223.854 89.5718 216.553 85.6952 208.779 84.4459Z" fill="#EB8F00"/>
<path d="M224.629 108.182C222.696 107.624 220.644 108.58 219.827 110.422C216.233 116.961 211.718 122.942 206.421 128.198C201.173 133.495 195.185 138.01 188.645 141.597C186.81 142.421 185.861 144.465 186.405 146.399C186.977 148.318 188.897 149.26 190.704 149.937C200.831 153.727 211.976 150.907 220.539 142.393L220.623 142.316C229.13 133.753 231.95 122.607 228.16 112.474C227.49 110.673 226.541 108.747 224.629 108.182Z" fill="#422B0D"/>
<path d="M220 141.693L219.959 141.735V141.777L220 141.693Z" fill="#422B0D"/>
<path d="M207.111 128.731L207.034 128.8L206.964 128.877L207.111 128.731Z" fill="#422B0D"/>
<path d="M207.111 128.731L207.034 128.8L206.964 128.877L207.111 128.731Z" fill="#422B0D"/>
<path d="M220 141.693L219.959 141.735V141.777L220 141.693Z" fill="#422B0D"/>
<path d="M226.505 132.483C226.15 132.483 225.808 132.532 225.473 132.56C221.683 132.804 218.124 134.458 215.493 137.194C212.673 139.902 210.887 143.517 210.44 147.404C210.398 147.746 210.356 148.102 210.335 148.437C210.314 148.772 210.391 149.051 210.433 149.33C214.209 147.669 217.636 145.317 220.539 142.393L220.623 142.316C223.421 139.531 225.696 136.266 227.336 132.679C227.064 132.595 226.785 132.532 226.505 132.483Z" fill="#ED7770"/>
<path d="M219.827 110.422C216.233 116.961 211.718 122.942 206.421 128.198C201.173 133.495 195.185 138.01 188.645 141.597C186.81 142.421 185.861 144.465 186.405 146.399C186.496 146.685 186.614 146.957 186.768 147.215C187.054 147.117 187.326 147.006 187.598 146.873C196.511 143.914 204.592 138.875 211.159 132.162C217.601 125.86 222.514 118.176 225.529 109.682C225.648 109.396 225.752 109.103 225.843 108.803C225.48 108.524 225.069 108.308 224.629 108.182C222.696 107.624 220.644 108.58 219.827 110.422Z" fill="white"/>
<path d="M206.963 129.249C211.06 125.285 213.74 121.39 216.964 116.645C217.767 115.458 218.528 114.244 219.26 112.995L219.791 112.053C219.93 111.808 220.084 111.571 220.265 111.355C220.586 110.957 220.998 110.65 221.473 110.454C222.575 110.05 223.783 110.029 224.899 110.399C227.167 111.487 229.143 115.368 228.891 114.642C228.891 114.642 228.48 113.016 228.466 112.995C227.907 111.599 227.335 110.022 225.89 108.807C224.341 107.628 222.275 107.391 220.503 108.193C219.672 108.57 218.953 109.149 218.409 109.875C218.144 110.21 217.906 110.573 217.711 110.957L217.243 111.878C216.594 113.099 215.903 114.307 215.15 115.486C212.47 119.96 209.308 124.126 205.721 127.909L205.609 128.02C201.904 131.566 197.821 134.685 193.424 137.323C192.238 138.021 191.037 138.719 189.816 139.417L188.867 139.899C188.483 140.094 188.12 140.324 187.785 140.596C187.052 141.141 186.473 141.86 186.096 142.69C185.35 144.449 185.615 146.48 186.794 147.987C188.672 150.437 192.957 150.779 192.978 150.779C193.675 151.03 189.446 149.229 188.357 146.961C187.974 145.886 187.974 144.707 188.357 143.632C188.539 143.144 188.839 142.711 189.237 142.376C189.453 142.195 189.69 142.041 189.935 141.908L190.877 141.378C192.119 140.68 193.333 139.878 194.527 139.075C199.266 135.851 202.902 133.492 206.845 129.36" fill="#EB8F00"/>
<path d="M237.485 102.451C238.323 107.783 233.424 112.836 228.978 113.436C225.851 113.855 222.362 113.136 217.114 111.831C216.339 111.684 215.551 111.454 214.685 111.238C211.489 110.351 208.348 109.284 205.271 108.041C204.663 107.818 204.328 107.176 204.482 106.555C204.573 106.29 204.754 106.059 204.984 105.906C207.336 103.491 209.988 101.383 212.864 99.6247C220.129 95.1303 222.892 94.5231 226.019 94.1044C230.332 93.3995 236.578 96.6308 237.485 102.451Z" fill="url(#paint4_radial_50_1041)"/>
<path d="M230.779 97.4574C232.809 98.4205 232.823 101.205 229.725 101.645C227.736 101.91 217.498 102.873 218.691 100.982C220.645 97.8762 227.91 96.0965 230.779 97.4574Z" fill="#81D4FA"/>
<path d="M207.84 102.285L201.398 108.064L203.785 98.8863C203.806 98.7747 203.827 98.67 203.834 98.5583C204.099 96.9671 203.017 95.4597 201.426 95.2014C201.049 95.1386 200.659 95.1526 200.282 95.2363C198.586 95.7039 197.358 97.1835 197.218 98.9352C196.82 102.99 195.885 112.544 195.522 116.264C195.41 116.634 195.62 117.025 195.99 117.136C196.234 117.213 196.499 117.143 196.681 116.962L211.12 107.833L211.406 107.631C213.151 106.291 213.577 103.737 212.167 102.257C211.092 101.127 209.236 101.217 207.84 102.285Z" fill="#422B0D"/>
<path d="M175.211 153.163C174.96 150.156 174.953 147.448 177.668 139.722C178.728 136.665 180.166 133.755 181.946 131.054C182.043 130.803 182.225 130.594 182.455 130.454C183.006 130.175 183.676 130.363 184.011 130.88C185.805 133.504 187.445 136.226 188.939 139.031C189.315 139.799 189.692 140.483 189.992 141.181C192.295 145.85 193.684 148.969 193.936 151.977C194.291 156.255 190.572 161.88 185.414 162.201C179.796 162.522 175.476 157.351 175.211 153.163Z" fill="url(#paint5_radial_50_1041)"/>
<path d="M180.168 144.9C181.682 143.385 182.89 153.156 183.05 155.075C183.295 158.062 180.684 158.62 179.372 156.925C177.502 154.552 177.677 147.356 180.168 144.9Z" fill="#81D4FA"/>
<path d="M178.192 135.541L182.84 128.234L174.179 132.1L173.886 132.219C172.358 132.735 170.697 131.919 170.173 130.39C170.048 130.027 169.999 129.644 170.027 129.26C170.208 127.508 171.464 126.056 173.174 125.631L189.938 121.087C190.287 120.92 190.705 121.066 190.873 121.415C190.985 121.646 190.964 121.918 190.81 122.12L184.201 137.858C184.159 137.969 184.11 138.074 184.054 138.179C183.022 140.119 180.565 140.97 178.876 139.812C177.585 138.933 177.376 137.104 178.192 135.541Z" fill="#422B0D"/>
<path d="M135.039 164.751C116.858 167.226 95.6752 158.497 92.2682 133.472C88.8613 108.448 106.94 94.3738 125.12 91.8987C135.218 90.5239 144.99 92.5743 152.725 97.6935C161.12 103.327 166.376 112.165 167.876 123.179C169.375 134.192 166.665 144.055 160.081 151.721C153.996 158.721 145.07 163.385 135.039 164.751Z" fill="url(#paint6_radial_50_1041)"/>
<path d="M158.34 102.42C162.724 107.868 165.486 114.448 166.305 121.397C167.801 132.389 165.094 142.273 158.51 149.939C152.425 156.94 143.507 161.602 133.468 162.969C121.699 164.571 108.686 161.469 100.041 152.294C108.621 162.851 122.537 166.453 135.039 164.751C145.07 163.385 153.996 158.721 160.081 151.721C166.664 144.047 169.375 134.192 167.876 123.179C166.745 114.876 163.476 107.803 158.34 102.42Z" fill="#EB8F00"/>
<path d="M104.417 100.732C88.6996 96.8488 77.3318 89.5522 78.2547 96.3303C80.0923 109.828 85.1061 120.176 91.9281 127.689C91.884 115.798 96.9855 106.782 104.417 100.732Z" fill="#4A251A"/>
<path d="M166.85 118.23C171.701 109.076 173.941 97.4564 172.049 83.5631C171.081 76.4553 161.928 86.904 147.598 94.9602C149.37 95.7563 151.072 96.6889 152.696 97.759C159.775 102.505 164.607 109.542 166.85 118.23Z" fill="#4A251A"/>
<path d="M146.923 84.2951C142.658 77.6362 136.004 71.5264 130.738 72.3179C125.032 73.1694 126.388 75.4479 123.237 75.8768C119.939 76.3258 120.846 73.6648 115.496 74.3931C110.147 75.1213 105.12 82.5976 102.59 90.3309C110.099 91.0999 117.672 90.9196 125.132 89.7995C135.171 88.4327 142.266 86.2726 146.923 84.2951Z" fill="#826156"/>
<path d="M149.158 88.3216C148.492 86.9345 147.749 85.5933 146.923 84.2951C142.266 86.2726 135.171 88.4327 125.132 89.7995C117.672 90.9196 110.099 91.0999 102.59 90.3309C102.127 91.812 101.759 93.3269 101.474 94.8509C109.559 95.0861 117.644 94.7168 125.672 93.7582C133.626 92.5409 141.477 90.7257 149.158 88.3216Z" fill="#A1887F"/>
<path d="M149.157 88.3155C141.476 90.7196 133.625 92.5348 125.671 93.7522C117.644 94.7107 109.559 95.08 101.473 94.8448C89.6512 94.6258 80.1237 93.6093 80.1237 93.6093C80.1237 93.6093 96.2226 117.017 128.245 112.658C160.267 108.298 168.862 81.5278 168.862 81.5278C168.862 81.5278 160.252 84.9988 149.157 88.3155Z" fill="#7A5549"/>
<path d="M142.014 113.466C144.578 113.117 147.332 115.802 148.011 120.785C148.689 125.768 146.753 129.092 144.189 129.441C141.624 129.79 138.87 127.105 138.192 122.122C137.513 117.139 139.449 113.816 142.014 113.466Z" fill="#422B0D"/>
<path d="M115.194 117.118C112.63 117.467 110.694 120.791 111.372 125.773C112.05 130.756 114.804 133.441 117.369 133.092C119.934 132.743 121.87 129.419 121.191 124.437C120.513 119.454 117.759 116.769 115.194 117.118Z" fill="#422B0D"/>
<path d="M115.154 120.067C114.157 119.763 113.106 120.324 112.802 121.321C112.57 122.084 112.838 122.905 113.47 123.379C114.467 123.684 115.517 123.123 115.822 122.126C116.055 121.37 115.785 120.541 115.154 120.067Z" fill="#896024"/>
<path d="M142.187 116.387C141.19 116.082 140.14 116.643 139.835 117.64C139.603 118.403 139.872 119.225 140.503 119.699C141.5 120.003 142.551 119.442 142.855 118.445C143.088 117.69 142.819 116.861 142.187 116.387Z" fill="#896024"/>
<path d="M154.871 135.16C153.805 133.745 151.859 133.323 150.303 134.17C144.293 136.846 137.932 138.638 131.414 139.495C124.896 140.413 118.287 140.387 111.781 139.414C110.056 139.022 108.3 139.941 107.651 141.589C107.032 143.24 107.875 144.932 108.779 146.369C113.87 154.43 123.194 158.393 133.744 156.994L133.839 156.981C144.386 155.507 152.311 149.196 155.054 140.068C155.542 138.442 155.908 136.586 154.871 135.16Z" fill="#422B0D"/>
<path d="M143.215 153.216C142.96 153.042 142.707 152.882 142.445 152.716C139.657 150.872 136.279 150.13 132.976 150.647C129.544 151.04 126.364 152.622 123.979 155.118C123.77 155.334 123.553 155.55 123.324 155.79C123.096 156.03 123.036 156.247 122.916 156.465C126.451 157.32 130.11 157.501 133.713 156.995L133.809 156.982C137.261 156.519 140.6 155.445 143.668 153.804C143.528 153.599 143.375 153.403 143.215 153.216Z" fill="#ED7770"/>
<path d="M150.303 134.17C144.293 136.846 137.932 138.638 131.414 139.495C124.896 140.413 118.287 140.387 111.781 139.414C110.056 139.022 108.3 139.941 107.651 141.589C107.558 141.84 107.502 142.094 107.471 142.36C107.691 142.434 107.932 142.506 108.247 142.575C116.075 145.248 124.433 146.014 132.62 144.802C140.502 143.818 148.051 141.044 154.699 136.698C154.968 136.542 155.187 136.393 155.385 136.254C155.278 135.858 155.11 135.493 154.871 135.16C153.805 133.745 151.859 133.323 150.303 134.17Z" fill="white"/>
<path d="M154.893 135.164C153.812 133.744 151.851 133.324 150.28 134.173C144.271 136.849 137.909 138.641 131.391 139.498C124.881 140.415 118.272 140.389 111.766 139.416C110.04 139.024 108.285 139.943 107.636 141.591C107.017 143.242 107.86 144.934 108.764 146.37C109.173 147.016 109.617 147.643 110.079 148.244C110.079 148.244 108.135 143.665 109.075 142.134C109.378 141.503 109.958 141.051 110.648 140.912C110.934 140.873 111.227 140.885 111.51 140.936C118.137 141.922 124.875 141.96 131.511 141.035L131.723 141.006C138.358 140.125 144.832 138.288 150.948 135.567C151.207 135.442 151.486 135.352 151.771 135.313C152.472 135.255 153.16 135.535 153.621 136.069C154.929 137.294 154.288 142.232 154.288 142.232C154.573 141.529 154.84 140.806 155.084 140.072C155.571 138.445 155.931 136.59 154.893 135.164Z" fill="#EB8F00"/>
<defs>
<radialGradient id="paint0_radial_50_1041" cx="0" cy="0" r="1" gradientUnits="userSpaceOnUse" gradientTransform="translate(273.389 124.105) rotate(15) scale(41.075 41.0748)">
<stop offset="0.5" stop-color="#FDE030"/>
<stop offset="0.92" stop-color="#F7C02B"/>
<stop offset="1" stop-color="#F4A223"/>
</radialGradient>
<radialGradient id="paint1_radial_50_1041" cx="0" cy="0" r="1" gradientUnits="userSpaceOnUse" gradientTransform="translate(278.188 106.195) rotate(15) scale(45.582 41.8394)">
<stop stop-color="#ED7770"/>
<stop offset="0.9" stop-color="#ED7770" stop-opacity="0"/>
</radialGradient>
<radialGradient id="paint2_radial_50_1041" cx="0" cy="0" r="1" gradientUnits="userSpaceOnUse" gradientTransform="translate(-1213.03 5934.86) rotate(15) scale(46.5096 47.5421)">
<stop stop-color="#ED7770"/>
<stop offset="0.9" stop-color="#ED7770" stop-opacity="0"/>
</radialGradient>
<radialGradient id="paint3_radial_50_1041" cx="0" cy="0" r="1" gradientUnits="userSpaceOnUse" gradientTransform="translate(200.491 123.186) rotate(-45.001) scale(39.9155)">
<stop offset="0.5" stop-color="#FDE030"/>
<stop offset="0.92" stop-color="#F7C02B"/>
<stop offset="1" stop-color="#F4A223"/>
</radialGradient>
<radialGradient id="paint4_radial_50_1041" cx="0" cy="0" r="1" gradientUnits="userSpaceOnUse" gradientTransform="translate(177.535 116.567) rotate(-94.4269) scale(90.745 83.6717)">
<stop offset="0.46" stop-color="#29B6F6"/>
<stop offset="1" stop-color="#1E88E5"/>
</radialGradient>
<radialGradient id="paint5_radial_50_1041" cx="0" cy="0" r="1" gradientUnits="userSpaceOnUse" gradientTransform="translate(202.03 88.2866) rotate(177.291) scale(90.7838 82.5336)">
<stop offset="0.46" stop-color="#29B6F6"/>
<stop offset="1" stop-color="#1E88E5"/>
</radialGradient>
<radialGradient id="paint6_radial_50_1041" cx="0" cy="0" r="1" gradientUnits="userSpaceOnUse" gradientTransform="translate(129.114 119.048) rotate(-7.75301) scale(46.4752 46.9637)">
<stop offset="0.5" stop-color="#FDE030"/>
<stop offset="0.92" stop-color="#F7C02B"/>
<stop offset="1" stop-color="#F4A223"/>
</radialGradient>
</defs>
</svg>
